<mxfile host="app.diagrams.net" modified="2020-05-29T13:29:07.260Z" agent="5.0 (Windows)" etag="rSYBKF17mETnAY4kWaY-" version="13.1.3" type="github">
  <diagram id="laY-fVb17HLf7wiZozy-" name="Page-1">
    <mxGraphModel dx="814" dy="453" grid="1" gridSize="10" guides="1" tooltips="1" connect="1" arrows="1" fold="1" page="1" pageScale="1" pageWidth="827" pageHeight="1169" math="0" shadow="0">
      <root>
        <mxCell id="0" />
        <mxCell id="1" parent="0" />
        <mxCell id="XyNdkiyIVKa8AsfBxNkg-2" value="" style="rounded=0;whiteSpace=wrap;html=1;" vertex="1" parent="1">
          <mxGeometry x="30" y="175" width="340" height="575" as="geometry" />
        </mxCell>
        <mxCell id="XyNdkiyIVKa8AsfBxNkg-3" value="" style="rounded=0;whiteSpace=wrap;html=1;" vertex="1" parent="1">
          <mxGeometry x="430" y="175" width="340" height="575" as="geometry" />
        </mxCell>
        <mxCell id="XyNdkiyIVKa8AsfBxNkg-4" value="General" style="text;html=1;align=center;verticalAlign=middle;resizable=0;points=[];autosize=1;" vertex="1" parent="1">
          <mxGeometry x="160" y="150" width="60" height="20" as="geometry" />
        </mxCell>
        <mxCell id="XyNdkiyIVKa8AsfBxNkg-5" value="Personal" style="text;html=1;align=center;verticalAlign=middle;resizable=0;points=[];autosize=1;" vertex="1" parent="1">
          <mxGeometry x="565" y="150" width="70" height="20" as="geometry" />
        </mxCell>
        <mxCell id="XyNdkiyIVKa8AsfBxNkg-8" value="General Income" style="rounded=0;whiteSpace=wrap;html=1;" vertex="1" parent="1">
          <mxGeometry x="250" y="40" width="120" height="60" as="geometry" />
        </mxCell>
        <mxCell id="XyNdkiyIVKa8AsfBxNkg-9" value="Additional Income" style="rounded=0;whiteSpace=wrap;html=1;" vertex="1" parent="1">
          <mxGeometry x="430" y="40" width="120" height="60" as="geometry" />
        </mxCell>
        <mxCell id="XyNdkiyIVKa8AsfBxNkg-10" value="" style="rounded=0;whiteSpace=wrap;html=1;" vertex="1" parent="1">
          <mxGeometry x="40" y="190" width="320" height="65" as="geometry" />
        </mxCell>
        <mxCell id="XyNdkiyIVKa8AsfBxNkg-11" value="Food" style="rounded=0;whiteSpace=wrap;html=1;" vertex="1" parent="1">
          <mxGeometry x="45" y="195" width="90" height="20" as="geometry" />
        </mxCell>
        <mxCell id="XyNdkiyIVKa8AsfBxNkg-12" value="Home food, daily eating at work" style="rounded=0;whiteSpace=wrap;html=1;" vertex="1" parent="1">
          <mxGeometry x="140" y="195" width="210" height="20" as="geometry" />
        </mxCell>
        <mxCell id="XyNdkiyIVKa8AsfBxNkg-16" value="Bread, water, cookies, vegetables, fruits, cakes, eating out for less than 100hrn" style="rounded=0;whiteSpace=wrap;html=1;" vertex="1" parent="1">
          <mxGeometry x="45" y="220" width="305" height="30" as="geometry" />
        </mxCell>
        <mxCell id="XyNdkiyIVKa8AsfBxNkg-17" value="" style="rounded=0;whiteSpace=wrap;html=1;" vertex="1" parent="1">
          <mxGeometry x="40" y="270" width="320" height="65" as="geometry" />
        </mxCell>
        <mxCell id="XyNdkiyIVKa8AsfBxNkg-18" value="Home" style="rounded=0;whiteSpace=wrap;html=1;" vertex="1" parent="1">
          <mxGeometry x="45" y="275" width="90" height="20" as="geometry" />
        </mxCell>
        <mxCell id="XyNdkiyIVKa8AsfBxNkg-19" value="Cleaning, washing, tiding up" style="rounded=0;whiteSpace=wrap;html=1;" vertex="1" parent="1">
          <mxGeometry x="140" y="275" width="210" height="20" as="geometry" />
        </mxCell>
        <mxCell id="XyNdkiyIVKa8AsfBxNkg-20" value="" style="rounded=0;whiteSpace=wrap;html=1;" vertex="1" parent="1">
          <mxGeometry x="45" y="300" width="305" height="30" as="geometry" />
        </mxCell>
        <mxCell id="XyNdkiyIVKa8AsfBxNkg-21" value="" style="rounded=0;whiteSpace=wrap;html=1;" vertex="1" parent="1">
          <mxGeometry x="40" y="350" width="320" height="65" as="geometry" />
        </mxCell>
        <mxCell id="XyNdkiyIVKa8AsfBxNkg-22" value="Hygiene" style="rounded=0;whiteSpace=wrap;html=1;" vertex="1" parent="1">
          <mxGeometry x="45" y="355" width="90" height="20" as="geometry" />
        </mxCell>
        <mxCell id="XyNdkiyIVKa8AsfBxNkg-23" value="Hair, body, teeth care consumebles" style="rounded=0;whiteSpace=wrap;html=1;" vertex="1" parent="1">
          <mxGeometry x="140" y="355" width="210" height="20" as="geometry" />
        </mxCell>
        <mxCell id="XyNdkiyIVKa8AsfBxNkg-24" value="Shampoo, shower gel, tooth gel, toilet paper&amp;nbsp; " style="rounded=0;whiteSpace=wrap;html=1;" vertex="1" parent="1">
          <mxGeometry x="45" y="380" width="305" height="30" as="geometry" />
        </mxCell>
        <mxCell id="XyNdkiyIVKa8AsfBxNkg-25" value="" style="rounded=0;whiteSpace=wrap;html=1;" vertex="1" parent="1">
          <mxGeometry x="40" y="430" width="320" height="65" as="geometry" />
        </mxCell>
        <mxCell id="XyNdkiyIVKa8AsfBxNkg-26" value="Repairing" style="rounded=0;whiteSpace=wrap;html=1;" vertex="1" parent="1">
          <mxGeometry x="45" y="435" width="90" height="20" as="geometry" />
        </mxCell>
        <mxCell id="XyNdkiyIVKa8AsfBxNkg-27" value="repairing, cleaning, fixing" style="rounded=0;whiteSpace=wrap;html=1;" vertex="1" parent="1">
          <mxGeometry x="140" y="435" width="210" height="20" as="geometry" />
        </mxCell>
        <mxCell id="XyNdkiyIVKa8AsfBxNkg-28" value="fix shoes, umbrella, clean coat" style="rounded=0;whiteSpace=wrap;html=1;" vertex="1" parent="1">
          <mxGeometry x="45" y="460" width="305" height="30" as="geometry" />
        </mxCell>
        <mxCell id="XyNdkiyIVKa8AsfBxNkg-29" value="" style="rounded=0;whiteSpace=wrap;html=1;" vertex="1" parent="1">
          <mxGeometry x="40" y="510" width="320" height="65" as="geometry" />
        </mxCell>
        <mxCell id="XyNdkiyIVKa8AsfBxNkg-30" value="Health" style="rounded=0;whiteSpace=wrap;html=1;" vertex="1" parent="1">
          <mxGeometry x="45" y="515" width="90" height="20" as="geometry" />
        </mxCell>
        <mxCell id="XyNdkiyIVKa8AsfBxNkg-31" value="healing, analyzes, health checks" style="rounded=0;whiteSpace=wrap;html=1;" vertex="1" parent="1">
          <mxGeometry x="140" y="515" width="210" height="20" as="geometry" />
        </mxCell>
        <mxCell id="XyNdkiyIVKa8AsfBxNkg-32" value="doctor&#39;s appointment, analyze, medicine" style="rounded=0;whiteSpace=wrap;html=1;" vertex="1" parent="1">
          <mxGeometry x="45" y="540" width="305" height="30" as="geometry" />
        </mxCell>
        <mxCell id="XyNdkiyIVKa8AsfBxNkg-33" value="" style="rounded=0;whiteSpace=wrap;html=1;" vertex="1" parent="1">
          <mxGeometry x="40" y="585" width="320" height="65" as="geometry" />
        </mxCell>
        <mxCell id="XyNdkiyIVKa8AsfBxNkg-34" value="Rats" style="rounded=0;whiteSpace=wrap;html=1;" vertex="1" parent="1">
          <mxGeometry x="45" y="590" width="90" height="20" as="geometry" />
        </mxCell>
        <mxCell id="XyNdkiyIVKa8AsfBxNkg-35" value="Pets goods" style="rounded=0;whiteSpace=wrap;html=1;" vertex="1" parent="1">
          <mxGeometry x="140" y="590" width="210" height="20" as="geometry" />
        </mxCell>
        <mxCell id="XyNdkiyIVKa8AsfBxNkg-36" value="doctor&#39;s appointment, food, medicine, cage consumables. " style="rounded=0;whiteSpace=wrap;html=1;" vertex="1" parent="1">
          <mxGeometry x="45" y="615" width="305" height="30" as="geometry" />
        </mxCell>
        <mxCell id="XyNdkiyIVKa8AsfBxNkg-37" value="" style="rounded=0;whiteSpace=wrap;html=1;" vertex="1" parent="1">
          <mxGeometry x="440" y="190" width="320" height="65" as="geometry" />
        </mxCell>
        <mxCell id="XyNdkiyIVKa8AsfBxNkg-38" value="Clothes" style="rounded=0;whiteSpace=wrap;html=1;" vertex="1" parent="1">
          <mxGeometry x="445" y="195" width="90" height="20" as="geometry" />
        </mxCell>
        <mxCell id="XyNdkiyIVKa8AsfBxNkg-39" value="clothes, shoes" style="rounded=0;whiteSpace=wrap;html=1;" vertex="1" parent="1">
          <mxGeometry x="540" y="195" width="210" height="20" as="geometry" />
        </mxCell>
        <mxCell id="XyNdkiyIVKa8AsfBxNkg-40" value="All clothes, shoes, underwear, socks" style="rounded=0;whiteSpace=wrap;html=1;" vertex="1" parent="1">
          <mxGeometry x="445" y="220" width="305" height="30" as="geometry" />
        </mxCell>
        <mxCell id="XyNdkiyIVKa8AsfBxNkg-41" value="" style="rounded=0;whiteSpace=wrap;html=1;" vertex="1" parent="1">
          <mxGeometry x="440" y="265" width="320" height="65" as="geometry" />
        </mxCell>
        <mxCell id="XyNdkiyIVKa8AsfBxNkg-42" value="Cosmetics" style="rounded=0;whiteSpace=wrap;html=1;" vertex="1" parent="1">
          <mxGeometry x="445" y="270" width="90" height="20" as="geometry" />
        </mxCell>
        <mxCell id="XyNdkiyIVKa8AsfBxNkg-43" value="appearance, beauty" style="rounded=0;whiteSpace=wrap;html=1;" vertex="1" parent="1">
          <mxGeometry x="540" y="270" width="210" height="20" as="geometry" />
        </mxCell>
        <mxCell id="XyNdkiyIVKa8AsfBxNkg-44" value="All clothes, shoes, underwear, socks" style="rounded=0;whiteSpace=wrap;html=1;" vertex="1" parent="1">
          <mxGeometry x="445" y="295" width="305" height="30" as="geometry" />
        </mxCell>
        <mxCell id="XyNdkiyIVKa8AsfBxNkg-45" value="" style="rounded=0;whiteSpace=wrap;html=1;" vertex="1" parent="1">
          <mxGeometry x="440.5" y="345" width="320" height="65" as="geometry" />
        </mxCell>
        <mxCell id="XyNdkiyIVKa8AsfBxNkg-46" value="Personal" style="rounded=0;whiteSpace=wrap;html=1;" vertex="1" parent="1">
          <mxGeometry x="445.5" y="350" width="90" height="20" as="geometry" />
        </mxCell>
        <mxCell id="XyNdkiyIVKa8AsfBxNkg-47" value="other things we need personally" style="rounded=0;whiteSpace=wrap;html=1;" vertex="1" parent="1">
          <mxGeometry x="540.5" y="350" width="210" height="20" as="geometry" />
        </mxCell>
        <mxCell id="XyNdkiyIVKa8AsfBxNkg-48" value="new headphones, laptop upgrade, monitor, paper, book other. " style="rounded=0;whiteSpace=wrap;html=1;" vertex="1" parent="1">
          <mxGeometry x="445.5" y="375" width="305" height="30" as="geometry" />
        </mxCell>
      </root>
    </mxGraphModel>
  </diagram>
</mxfile>
